<?xml version="1.0" standalone="no"?>
<!DOCTYPE svg PUBLIC "-//W3C//DTD SVG 20010904//EN"
 "http://www.w3.org/TR/2001/REC-SVG-20010904/DTD/svg10.dtd">
<svg version="1.0" xmlns="http://www.w3.org/2000/svg"
 width="2007.000000pt" height="2048.000000pt" viewBox="0 0 2007.000000 2048.000000"
 preserveAspectRatio="xMidYMid meet">
<metadata>
Created by potrace 1.16, written by Peter Selinger 2001-2019
</metadata>
<g transform="translate(0.000000,2048.000000) scale(0.100000,-0.100000)"
fill="white" stroke="none">
<path d="M7965 19465 c-5 -1 -30 -9 -55 -16 -176 -51 -300 -221 -300 -408 0
-225 156 -397 390 -431 47 -7 90 -13 95 -15 14 -4 91 -159 148 -295 24 -58 62
-148 84 -200 23 -52 60 -144 83 -205 23 -60 46 -119 50 -130 4 -11 13 -36 20
-55 7 -19 17 -46 22 -60 25 -59 39 -100 58 -170 23 -81 90 -285 100 -302 6
-10 10 -23 10 -30 0 -14 38 -142 51 -173 43 -102 55 -192 34 -250 -18 -52 -19
-114 0 -195 8 -36 28 -123 44 -195 16 -71 40 -184 51 -250 12 -66 31 -167 41
-225 11 -58 25 -134 30 -170 6 -36 15 -92 20 -125 6 -33 14 -87 19 -120 6 -33
15 -82 21 -110 5 -27 14 -79 19 -115 5 -36 11 -74 15 -85 4 -13 -5 -37 -27
-70 -33 -50 -33 -50 -31 -220 3 -171 40 -988 47 -1035 5 -28 -15 -77 -44 -108
-52 -55 -253 -392 -361 -602 -192 -375 -327 -706 -449 -1100 -18 -58 -36 -116
-40 -130 -4 -14 -13 -45 -20 -70 -7 -25 -16 -56 -20 -70 -5 -14 -18 -65 -30
-115 -20 -86 -28 -118 -50 -202 -5 -21 -18 -81 -30 -133 -19 -92 -28 -134 -51
-257 -6 -32 -15 -76 -19 -98 -9 -40 -19 -94 -40 -210 -14 -84 -36 -254 -54
-430 -9 -82 -20 -181 -26 -220 -10 -77 -34 -392 -50 -665 -28 -475 -1 -1403
50 -1695 28 -162 116 -417 172 -497 10 -14 18 -29 18 -32 0 -25 141 -209 224
-292 139 -140 351 -271 571 -353 33 -13 69 -27 80 -31 36 -15 137 -42 225 -60
30 -7 72 -16 92 -21 209 -53 1233 -48 1508 7 125 25 143 30 255 66 58 18 69
23 125 46 355 145 628 372 791 659 49 84 95 180 109 223 7 25 17 49 22 54 4 6
8 22 8 36 0 14 4 30 9 36 13 13 49 213 60 334 47 489 47 1507 0 1930 -18 172
-28 263 -39 375 -6 61 -15 139 -20 175 -5 36 -14 103 -20 150 -22 168 -43 307
-60 385 -5 22 -14 67 -20 100 -37 187 -94 428 -175 740 -41 158 -108 374 -155
500 -5 11 -13 36 -20 55 -7 19 -16 44 -20 55 -5 11 -20 52 -35 90 -15 39 -33
84 -40 100 -7 17 -23 57 -35 90 -13 33 -26 65 -30 70 -4 6 -22 48 -40 95 -57
143 -264 542 -358 690 -20 32 -53 84 -72 116 -19 31 -52 80 -74 108 -38 51
-38 51 -32 181 31 691 46 983 52 1002 9 31 -12 119 -43 181 -28 56 -23 119 31
422 8 41 19 107 25 145 35 210 46 271 72 395 12 52 25 114 30 138 5 23 14 63
20 90 21 96 28 128 33 157 3 17 10 53 17 80 18 77 23 223 8 241 -15 18 -15 90
0 136 19 60 51 162 60 193 118 399 289 877 412 1153 10 23 29 63 40 90 128
285 129 286 225 299 201 28 313 116 385 303 23 59 18 214 -9 284 -137 352
-607 368 -775 26 -30 -62 -32 -71 -32 -180 0 -120 18 -175 92 -291 16 -25 16
-29 -9 -80 -14 -30 -33 -70 -41 -89 -9 -19 -37 -80 -62 -135 -26 -55 -67 -147
-92 -205 -25 -58 -53 -123 -63 -145 -28 -61 -100 -245 -116 -295 -8 -25 -19
-55 -25 -67 -32 -78 -55 -141 -95 -262 -97 -298 -116 -356 -149 -471 -36 -124
-37 -125 -95 -177 -31 -29 -60 -63 -63 -75 -19 -83 -39 -156 -48 -170 -5 -10
-9 -25 -9 -35 0 -9 -4 -30 -9 -47 -5 -17 -14 -50 -20 -73 -6 -24 -15 -60 -21
-80 -16 -67 -48 -206 -60 -268 -6 -33 -15 -78 -20 -100 -5 -22 -12 -58 -15
-80 -4 -22 -11 -60 -15 -85 -5 -25 -13 -72 -19 -105 -5 -33 -15 -87 -21 -120
-13 -70 -23 -137 -45 -290 -14 -101 -19 -116 -62 -185 -46 -75 -46 -75 -64
-255 -10 -99 -23 -216 -29 -261 -5 -44 -10 -96 -10 -116 0 -42 -20 -63 -47
-50 -10 5 -29 14 -43 20 -14 5 -38 15 -53 21 -68 27 -221 11 -306 -32 -63 -32
-66 -28 -80 86 -23 194 -30 262 -36 361 -7 113 -25 175 -64 226 -38 50 -49 78
-55 135 -3 28 -9 77 -15 110 -5 33 -14 92 -20 130 -6 39 -14 97 -19 130 -5 33
-16 94 -25 135 -8 41 -27 143 -42 225 -25 140 -107 486 -155 655 -12 41 -24
88 -27 104 -4 18 -32 56 -74 100 -38 38 -69 78 -69 88 0 10 -4 26 -9 36 -5 9
-15 37 -21 62 -23 84 -33 115 -51 165 -9 28 -38 115 -63 195 -25 80 -51 159
-57 175 -5 17 -24 68 -40 115 -17 47 -39 104 -50 127 -10 24 -19 47 -19 53 0
6 -4 18 -9 28 -5 9 -24 55 -41 102 -18 47 -39 101 -47 120 -9 19 -22 51 -30
70 -8 19 -24 55 -35 80 -11 25 -24 54 -28 65 -5 11 -46 99 -93 195 -109 227
-104 205 -58 276 21 33 44 78 49 100 6 21 15 58 21 80 42 159 -70 380 -233
459 -71 35 -200 56 -251 40z"/>
<path d="M5899 19076 c-2 -2 -71 -11 -154 -20 -191 -21 -543 -83 -660 -116
-16 -5 -68 -19 -115 -31 -115 -29 -152 -40 -172 -50 -10 -5 -27 -9 -37 -9 -11
0 -23 -4 -26 -10 -3 -5 -17 -10 -31 -10 -13 0 -32 -4 -42 -10 -9 -5 -46 -19
-82 -30 -36 -12 -74 -25 -85 -30 -11 -4 -47 -18 -80 -30 -33 -12 -80 -31 -105
-42 -25 -11 -54 -24 -65 -28 -63 -24 -359 -178 -490 -255 -358 -212 -773 -562
-989 -835 -37 -47 -74 -93 -82 -103 -24 -30 -166 -246 -211 -323 -65 -110
-177 -344 -220 -459 -18 -48 -25 -66 -50 -125 -33 -77 -84 -252 -113 -390 -77
-358 -100 -670 -81 -1117 16 -391 41 -590 112 -878 5 -22 14 -56 18 -75 5 -19
15 -55 23 -80 8 -25 21 -65 28 -90 8 -25 17 -49 22 -54 4 -6 8 -18 8 -28 0
-10 4 -26 9 -36 11 -21 25 -55 42 -102 48 -133 191 -412 267 -522 17 -26 32
-49 32 -53 0 -7 72 -114 116 -171 223 -294 552 -598 794 -736 94 -53 239 -126
276 -138 22 -7 59 -22 84 -32 117 -52 252 -85 433 -108 100 -13 483 -13 539 0
24 5 70 14 103 20 431 80 769 348 982 780 104 210 132 249 317 440 89 91 195
203 236 250 41 47 79 90 85 96 37 41 64 74 85 104 14 19 30 42 37 50 101 126
268 381 361 550 19 36 46 83 59 105 20 35 182 361 218 440 43 92 178 461 205
560 5 17 18 62 30 100 21 68 27 90 50 205 26 125 31 151 50 277 42 280 56 746
29 1003 -21 207 -38 344 -54 435 -11 64 -62 286 -74 325 -5 14 -19 59 -31 100
-13 41 -28 89 -36 105 -7 17 -16 44 -20 60 -20 82 -241 538 -245 505 -7 -72
-11 -119 -19 -240 -5 -80 -14 -174 -20 -210 -5 -36 -14 -96 -19 -135 -19 -141
-55 -310 -92 -431 -5 -17 -9 -38 -9 -47 0 -10 -4 -25 -9 -35 -5 -9 -19 -55
-31 -102 -34 -127 -60 -204 -101 -296 -10 -23 -21 -55 -25 -70 -10 -41 -156
-340 -204 -420 -22 -36 -40 -68 -40 -70 0 -25 -257 -375 -369 -504 -166 -191
-555 -572 -756 -741 -22 -18 -69 -60 -105 -94 -128 -117 -250 -216 -261 -209
-12 7 -8 90 11 199 6 33 14 89 20 125 5 36 14 94 21 130 6 36 15 88 19 115 18
109 44 258 61 340 5 28 14 73 19 100 22 112 46 222 90 410 12 50 25 108 29
130 12 61 63 254 95 360 8 28 29 104 46 170 17 66 39 143 49 170 10 28 33 97
51 155 58 182 77 241 84 247 3 4 6 15 6 25 0 10 4 26 10 36 5 9 27 69 50 132
22 63 45 124 50 135 5 11 20 52 34 90 13 39 47 124 75 190 28 66 55 129 60
140 23 54 34 79 86 190 64 137 208 425 267 533 58 107 70 102 -220 102 -137 0
-251 -2 -253 -4z"/>
<path d="M13375 19071 c-3 -6 2 -23 13 -39 31 -44 294 -584 362 -742 34 -80
73 -169 86 -198 13 -29 24 -59 24 -67 0 -7 5 -17 10 -20 6 -3 10 -15 10 -25 0
-11 10 -41 21 -67 12 -27 25 -57 30 -68 4 -11 19 -51 34 -90 15 -38 33 -90 41
-115 8 -25 19 -54 23 -65 13 -31 102 -296 111 -330 4 -16 29 -102 55 -190 47
-160 80 -279 94 -345 5 -19 20 -75 34 -125 14 -49 30 -115 37 -145 7 -30 18
-77 26 -105 8 -27 19 -75 25 -105 10 -51 16 -75 38 -170 18 -73 70 -343 86
-437 16 -102 55 -330 65 -388 45 -248 54 -325 42 -337 -17 -17 -171 102 -452
352 -593 526 -914 901 -1132 1325 -14 28 -35 68 -47 90 -33 66 -101 216 -101
226 0 5 -4 17 -9 27 -24 47 -99 253 -125 342 -98 340 -137 542 -151 770 -16
271 -30 410 -39 410 -21 -1 -136 -210 -226 -413 -71 -162 -175 -562 -209 -807
-91 -669 -53 -1283 115 -1828 20 -64 40 -133 44 -152 8 -35 32 -107 49 -145 5
-11 19 -47 31 -80 12 -33 31 -79 41 -102 11 -24 19 -45 19 -48 0 -7 29 -70 98
-215 30 -63 58 -125 63 -137 16 -42 212 -388 260 -460 27 -40 63 -95 80 -124
96 -164 392 -523 595 -723 160 -158 259 -285 285 -364 118 -361 526 -745 899
-844 96 -25 120 -31 175 -41 83 -14 543 -14 630 0 39 7 93 17 120 23 28 5 68
13 90 16 22 4 45 10 50 14 6 4 24 10 40 14 17 4 46 14 65 23 19 8 44 19 55 23
45 17 192 82 222 98 139 73 266 150 283 172 3 3 21 17 40 30 213 146 498 451
682 730 56 85 69 106 138 230 54 99 160 318 160 333 0 7 4 17 8 23 18 19 93
228 126 349 9 33 21 74 26 90 5 17 20 87 34 156 14 69 28 132 31 140 6 19 41
278 55 419 8 78 10 243 7 510 -5 376 -10 467 -37 605 -6 33 -15 83 -20 110
-40 228 -193 712 -240 759 -6 6 -10 17 -10 26 0 15 -13 42 -95 195 -239 448
-643 895 -1070 1186 -44 30 -84 57 -90 61 -19 15 -226 148 -229 148 -1 0 -52
27 -112 61 -118 66 -322 169 -335 169 -5 0 -38 14 -74 30 -36 17 -68 30 -70
30 -3 0 -24 9 -48 19 -23 10 -51 21 -62 24 -23 6 -160 54 -190 67 -11 5 -33
11 -50 13 -28 5 -68 16 -140 37 -127 39 -360 95 -455 110 -63 10 -142 24 -175
30 -217 39 -872 69 -890 41z"/>
<path d="M13521 12017 c-73 -152 -230 -359 -395 -520 -142 -138 -200 -182
-503 -381 -75 -48 -82 -61 -64 -108 16 -39 48 -177 71 -298 12 -63 25 -135 30
-160 10 -48 59 -342 84 -505 23 -144 46 -317 56 -415 11 -109 17 -129 46 -136
23 -6 141 10 199 26 17 5 49 13 73 19 23 6 59 15 80 21 94 24 335 103 427 140
11 4 74 29 140 56 106 42 187 81 333 160 35 20 134 82 204 128 71 48 213 153
258 191 30 26 82 71 115 99 80 68 255 242 342 341 97 110 323 419 323 441 0 4
9 17 19 28 35 38 75 127 62 135 -7 5 -76 11 -154 15 -218 10 -375 26 -456 47
-41 10 -82 19 -91 19 -9 0 -46 9 -81 20 -35 11 -82 26 -104 32 -22 7 -55 20
-73 30 -18 10 -39 18 -47 18 -8 0 -31 10 -52 22 -21 11 -60 33 -88 48 -184
100 -309 196 -539 413 -86 81 -162 147 -169 147 -7 0 -27 -33 -46 -73z"/>
<path d="M6179 12053 c-19 -16 -70 -62 -114 -104 -145 -138 -299 -265 -405
-336 -87 -58 -224 -134 -290 -161 -216 -88 -468 -142 -730 -157 -232 -13 -300
-18 -300 -24 0 -10 107 -189 152 -256 235 -345 556 -676 863 -890 39 -27 72
-52 75 -55 10 -11 69 -50 76 -50 3 0 19 -9 35 -21 82 -58 398 -221 509 -263
41 -16 84 -32 95 -37 116 -48 237 -89 264 -89 11 0 22 -4 25 -9 3 -5 18 -11
33 -14 16 -3 46 -11 68 -17 168 -48 357 -83 398 -72 42 11 38 -11 77 382 10
93 23 189 40 290 6 36 15 94 20 130 10 65 23 142 41 233 19 96 29 153 38 207
5 30 15 75 21 100 13 53 25 105 40 180 14 64 27 49 -145 163 -60 40 -139 93
-175 118 -87 59 -353 325 -426 424 -84 115 -168 244 -198 303 -30 59 -42 63
-87 25z"/>
<path d="M16271 11251 c-12 -16 -21 -38 -21 -50 0 -26 -94 -308 -153 -462 -44
-112 -142 -321 -194 -409 -14 -25 -34 -58 -43 -75 -199 -346 -574 -782 -827
-961 -37 -26 -70 -51 -73 -54 -13 -15 -193 -131 -260 -166 -41 -22 -84 -45
-95 -51 -96 -53 -356 -152 -450 -173 -22 -4 -67 -16 -100 -25 -58 -16 -96 -23
-235 -44 -130 -20 -422 -41 -700 -51 -156 -6 -288 -14 -293 -19 -4 -4 -12
-142 -17 -307 -5 -164 -13 -362 -16 -438 l-7 -139 414 6 c444 6 506 11 819 58
124 19 289 54 375 80 60 18 220 70 240 79 11 4 36 14 55 21 159 57 488 227
654 338 55 36 106 71 115 76 172 115 514 426 660 599 116 140 321 421 321 442
0 3 10 19 21 36 43 60 197 361 214 418 4 14 17 50 30 80 26 64 54 142 65 185
36 127 59 219 69 270 7 33 16 80 21 105 5 25 14 75 20 113 5 37 15 96 20 131
22 140 17 163 -42 190 -68 31 -169 73 -233 96 -27 10 -110 44 -184 74 -157 66
-144 64 -170 27z"/>
<path d="M3292 11190 c-106 -44 -221 -89 -255 -101 -34 -12 -66 -25 -72 -29
-5 -4 -24 -11 -42 -14 -61 -14 -67 -43 -43 -215 49 -341 114 -609 190 -776 10
-22 25 -58 34 -80 47 -114 69 -159 143 -296 62 -114 303 -465 365 -530 7 -8
42 -48 78 -89 337 -388 817 -745 1220 -909 33 -13 76 -32 165 -71 22 -10 85
-32 140 -50 55 -18 109 -36 120 -40 11 -4 38 -12 60 -18 22 -6 58 -15 80 -21
22 -5 58 -13 80 -16 45 -8 93 -16 215 -38 243 -43 420 -56 859 -64 l363 -6 -6
114 c-7 149 -25 625 -25 711 -1 80 27 74 -391 88 -162 6 -335 15 -385 21 -49
5 -128 14 -175 19 -319 35 -716 168 -932 312 -31 21 -60 38 -63 38 -20 0 -318
218 -355 259 -3 3 -34 31 -70 61 -66 56 -225 217 -283 287 -18 21 -50 58 -72
83 -23 25 -60 71 -83 103 -23 31 -59 81 -81 110 -67 90 -195 315 -275 482
-104 216 -111 231 -136 300 -12 33 -30 82 -41 109 -10 27 -19 56 -19 65 0 10
-4 21 -8 27 -5 5 -14 29 -21 54 -7 25 -17 54 -21 65 -5 11 -11 35 -14 52 -6
33 -33 84 -45 82 -3 0 -93 -36 -199 -79z"/>
<path d="M3258 8377 c-50 -38 -427 -287 -434 -287 -3 0 -38 -23 -79 -50 -84
-57 -90 -72 -52 -129 12 -19 31 -48 42 -66 221 -352 627 -781 1010 -1070 100
-75 148 -107 339 -230 220 -140 733 -364 931 -405 22 -5 76 -18 120 -30 44
-11 103 -25 130 -31 28 -5 70 -14 95 -19 297 -63 907 -64 1240 -1 83 15 205
42 235 51 17 5 59 18 95 29 36 11 88 26 117 35 66 19 176 61 228 86 22 11 44
20 49 20 23 0 156 72 156 85 0 15 -4 22 -90 170 -56 97 -122 233 -160 330 -13
33 -27 64 -32 69 -4 6 -8 19 -8 31 0 12 -4 25 -8 31 -5 5 -14 29 -22 54 -23
81 -34 100 -55 100 -22 0 -91 -23 -101 -33 -4 -4 -16 -7 -26 -7 -10 0 -26 -4
-36 -9 -9 -5 -37 -14 -62 -21 -25 -7 -53 -16 -62 -21 -10 -5 -29 -9 -42 -9
-14 0 -27 -4 -30 -9 -3 -4 -20 -11 -38 -15 -18 -3 -51 -10 -73 -15 -119 -26
-200 -40 -290 -51 -55 -6 -130 -16 -167 -21 -88 -12 -313 -12 -408 0 -41 6
-118 15 -170 21 -108 12 -173 25 -307 59 -92 23 -128 35 -137 43 -6 4 -20 8
-32 8 -20 0 -52 11 -196 69 -27 11 -324 157 -353 174 -182 106 -483 310 -525
357 -3 3 -41 34 -85 70 -107 86 -373 353 -519 522 -65 75 -124 139 -132 142
-7 3 -33 -9 -56 -27z"/>
<path d="M16450 8397 c-8 -7 -44 -46 -80 -87 -36 -41 -67 -77 -70 -80 -3 -3
-38 -44 -78 -91 -120 -143 -386 -393 -542 -509 -18 -14 -38 -30 -44 -36 -112
-107 -448 -313 -691 -424 -49 -22 -98 -45 -107 -50 -10 -6 -24 -10 -31 -10 -7
0 -32 -9 -55 -20 -22 -11 -47 -20 -53 -20 -12 0 -65 -15 -104 -30 -37 -15 -60
-21 -100 -30 -22 -4 -74 -15 -115 -23 -79 -17 -160 -28 -325 -48 -192 -22
-586 3 -800 51 -27 6 -68 15 -90 20 -99 22 -172 41 -240 64 -22 7 -60 19 -85
26 -46 13 -82 26 -112 41 -30 15 -78 11 -78 -7 0 -20 -65 -214 -92 -273 -39
-88 -109 -236 -119 -255 -13 -23 -45 -79 -72 -126 -81 -142 -97 -121 168 -228
148 -59 257 -97 325 -112 19 -4 71 -18 115 -30 79 -22 97 -27 205 -50 224 -47
823 -65 1050 -30 41 6 107 16 145 21 39 6 88 14 110 19 22 5 65 14 95 21 30 6
66 15 80 19 14 4 43 12 65 18 125 33 286 87 380 127 17 7 71 30 120 50 90 37
257 119 285 141 8 6 40 24 70 40 30 16 61 34 68 41 6 6 21 15 32 18 11 3 20
11 20 16 0 5 5 9 11 9 6 0 30 14 54 30 24 17 48 30 53 30 6 0 12 3 14 8 3 7
35 31 158 117 30 21 77 57 104 79 26 23 69 58 95 80 194 162 508 493 694 730
77 99 217 309 217 327 0 10 -48 49 -117 96 -559 379 -510 349 -533 330z"/>
<path d="M7984 5963 c12 -324 44 -829 71 -1119 7 -71 7 -71 209 -173 111 -55
206 -101 212 -101 6 0 29 -9 52 -20 22 -11 48 -20 56 -20 8 0 18 -4 21 -10 3
-5 14 -10 24 -10 10 0 40 -9 67 -19 120 -48 329 -102 479 -125 454 -69 1059
-71 1420 -6 169 31 382 82 416 101 10 5 26 9 37 9 20 0 143 45 194 71 10 5 25
9 34 9 9 0 33 9 53 19 20 11 81 41 136 68 55 27 109 55 120 61 11 6 44 21 72
34 61 27 58 19 73 193 25 306 31 382 44 605 8 129 20 317 27 418 6 101 9 186
6 189 -6 5 -21 -2 -117 -54 -140 -77 -174 -93 -296 -140 -301 -117 -592 -199
-829 -232 -383 -54 -1211 -36 -1509 33 -34 8 -88 20 -121 26 -140 29 -449 128
-564 181 -25 11 -55 24 -66 29 -38 15 -200 95 -245 120 -91 52 -84 64 -76
-137z"/>
<path d="M8065 3677 c-22 -12 -41 -25 -43 -29 -2 -5 -9 -8 -15 -8 -30 0 -604
-373 -728 -475 -9 -7 -52 -37 -95 -65 -44 -29 -117 -85 -162 -124 -46 -39
-105 -88 -130 -109 -74 -61 -204 -208 -232 -263 -8 -16 -26 -47 -41 -69 -23
-35 -53 -96 -79 -160 -83 -206 -81 -601 3 -786 13 -30 26 -59 28 -64 68 -175
305 -403 527 -507 160 -75 458 -109 607 -70 28 7 68 18 90 24 246 64 479 257
632 523 73 127 93 166 93 180 0 9 4 23 9 33 5 9 30 61 55 115 26 54 50 96 55
93 5 -3 14 -43 20 -88 48 -330 141 -530 335 -721 241 -237 470 -321 881 -321
356 -1 532 44 755 190 181 118 377 366 429 544 7 25 17 54 21 65 22 56 50 194
50 243 1 136 44 94 117 -113 102 -291 365 -592 608 -697 227 -98 523 -108 759
-27 64 22 172 73 196 93 8 6 28 18 45 26 95 48 294 281 360 423 107 231 125
654 35 825 -4 9 -18 42 -30 72 -77 196 -255 399 -535 611 -67 51 -451 309
-460 309 -3 0 -58 35 -121 78 -180 120 -243 159 -324 197 -41 20 -83 40 -92
45 -37 21 -37 21 -274 -120 -144 -86 -366 -191 -484 -229 -52 -17 -104 -35
-115 -40 -22 -10 -245 -65 -310 -76 -325 -56 -950 -54 -1235 4 -173 35 -348
85 -455 131 -11 4 -47 18 -80 31 -82 31 -335 157 -420 209 -39 23 -83 50 -100
60 -69 40 -106 60 -108 59 -1 0 -20 -10 -42 -22z"/>
</g>
</svg>
