<?xml version="1.0" standalone="no"?>
<!DOCTYPE svg PUBLIC "-//W3C//DTD SVG 20010904//EN"
 "http://www.w3.org/TR/2001/REC-SVG-20010904/DTD/svg10.dtd">
<svg version="1.0" xmlns="http://www.w3.org/2000/svg"
 width="1003.000000pt" height="1024.000000pt" viewBox="0 0 1003.000000 1024.000000"
 preserveAspectRatio="xMidYMid meet">
<metadata>
Created by potrace 1.16, written by Peter Selinger 2001-2019
</metadata>
<g transform="translate(0.000000,1024.000000) scale(0.100000,-0.100000)"
fill="#000000" stroke="none">
<path d="M0 5120 l0 -5120 5015 0 5015 0 0 5120 0 5120 -5015 0 -5015 0 0
-5120z m4071 4609 c133 -40 194 -201 124 -325 l-28 -51 30 -54 c74 -130 208
-470 289 -734 30 -98 43 -125 70 -150 28 -26 37 -46 63 -150 35 -139 86 -400
111 -566 13 -86 23 -123 40 -147 19 -26 24 -50 31 -139 9 -112 19 -203 23
-203 2 0 17 7 34 16 62 30 103 28 194 -10 20 -9 24 7 38 174 9 102 15 131 34
160 13 20 27 60 31 90 18 138 79 459 113 594 34 138 39 151 74 185 21 19 38
42 38 49 0 8 33 114 74 236 75 224 156 427 227 568 43 86 46 100 24 118 -8 7
-22 38 -31 68 -14 47 -15 64 -4 110 21 95 119 172 217 172 49 0 134 -50 168
-98 27 -39 30 -51 30 -120 0 -67 -3 -82 -26 -115 -46 -66 -118 -107 -190 -107
-23 0 -31 -10 -68 -90 -88 -189 -172 -415 -252 -675 -37 -119 -39 -133 -28
-175 10 -40 7 -63 -24 -205 -38 -171 -55 -262 -86 -471 -19 -128 -19 -133 -1
-170 16 -35 17 -53 9 -179 -5 -77 -12 -211 -17 -298 l-7 -158 62 -95 c287
-446 485 -1087 559 -1819 20 -194 22 -776 4 -990 -20 -236 -81 -378 -224 -521
-117 -117 -248 -189 -431 -235 -67 -18 -122 -22 -345 -26 -393 -8 -535 13
-725 106 -163 80 -253 165 -329 311 -78 149 -95 243 -105 585 -17 543 20 1000
119 1450 106 484 237 812 456 1146 l62 95 -14 303 c-14 283 -13 304 3 331 16
28 16 36 -6 182 -23 161 -70 410 -101 540 -14 60 -16 86 -8 114 13 48 8 69
-58 276 -55 169 -158 436 -228 591 -32 69 -38 77 -63 77 -81 0 -161 50 -198
123 -60 122 -6 257 122 303 47 16 75 17 124 3z m-866 -190 c3 -4 -26 -67 -64
-140 -236 -453 -416 -1007 -525 -1619 -34 -190 -56 -343 -51 -349 17 -16 450
386 571 532 264 315 407 676 446 1120 7 83 16 143 21 140 18 -11 106 -209 141
-318 77 -236 102 -420 93 -690 -8 -231 -29 -357 -93 -558 -90 -283 -277 -642
-443 -847 -29 -36 -108 -122 -176 -191 -110 -113 -128 -137 -168 -220 -83
-175 -187 -285 -340 -359 -118 -57 -186 -70 -362 -70 -157 1 -232 12 -322 49
-284 114 -504 309 -680 602 -187 310 -267 672 -249 1120 15 385 109 670 322
975 147 209 443 448 725 584 300 143 745 252 1021 247 69 -1 129 -5 133 -8z
m3835 -10 c726 -77 1385 -492 1665 -1048 56 -112 101 -237 134 -373 41 -168
51 -254 51 -428 0 -486 -117 -885 -352 -1199 -176 -235 -373 -380 -631 -466
-311 -103 -633 -46 -825 147 -58 58 -130 160 -156 223 -34 79 -53 105 -169
229 -138 146 -198 219 -276 336 -204 304 -349 652 -407 980 -27 148 -27 555 0
715 31 189 73 319 156 484 37 75 55 99 66 88 3 -2 9 -70 14 -150 23 -361 142
-700 346 -990 101 -143 596 -617 644 -617 14 0 13 27 -9 176 -62 420 -160 801
-322 1257 -70 197 -114 298 -214 498 -41 81 -71 150 -67 154 8 8 211 -1 352
-16z m-144 -3580 c168 -155 274 -219 430 -259 87 -23 225 -40 322 -40 43 0 62
-4 62 -12 0 -40 -128 -214 -258 -352 -249 -265 -474 -397 -848 -499 -188 -51
-181 -50 -194 -26 -6 11 -22 100 -35 197 -30 224 -48 329 -81 465 -15 59 -25
109 -23 111 2 1 46 31 96 65 178 121 318 269 385 405 12 25 25 46 29 46 3 0
55 -45 115 -101z m-3746 36 c84 -146 240 -305 403 -408 64 -41 61 -27 32 -147
-31 -127 -81 -457 -89 -583 -3 -43 -8 -82 -11 -87 -23 -37 -356 50 -537 141
-317 159 -519 336 -720 632 -48 71 -64 103 -56 108 7 3 69 9 138 12 140 7 235
24 336 62 120 45 196 97 384 263 39 34 75 62 80 62 4 0 23 -25 40 -55z m-1350
-484 c155 -481 496 -868 911 -1035 148 -60 363 -91 669 -99 l95 -2 12 -200 c6
-110 12 -213 12 -229 l1 -29 -197 7 c-422 14 -642 60 -913 189 -280 134 -579
414 -746 698 -107 183 -177 390 -205 605 -15 116 -25 105 136 163 62 23 126
48 141 56 15 8 31 12 35 9 4 -2 26 -62 49 -133z m6499 78 c176 -72 164 -49
131 -244 -46 -270 -168 -539 -341 -751 -72 -88 -237 -246 -332 -317 -161 -121
-340 -211 -530 -268 -204 -60 -336 -79 -621 -86 l-219 -6 7 224 c4 123 9 225
11 227 2 3 87 8 187 13 288 13 391 28 541 76 195 63 346 159 517 332 219 220
382 501 465 804 8 31 20 57 25 57 4 0 76 -28 159 -61z m-6567 -1456 c243 -285
528 -483 842 -588 262 -88 572 -84 869 12 59 19 111 32 116 29 5 -3 11 -19 15
-36 9 -47 62 -165 118 -262 28 -48 48 -94 45 -101 -7 -19 -197 -89 -327 -121
-204 -50 -524 -64 -705 -32 -400 71 -761 260 -1050 550 -159 159 -330 379
-323 415 2 9 41 38 88 66 47 27 117 71 155 98 38 26 74 47 80 47 6 0 40 -35
77 -77z m6664 -25 c84 -57 153 -108 154 -113 0 -22 -194 -264 -297 -370 -136
-139 -251 -236 -378 -318 -452 -291 -989 -369 -1490 -215 -85 25 -220 79 -233
92 -2 3 25 64 61 138 36 73 72 156 81 184 30 91 27 90 141 51 259 -89 601
-100 845 -29 311 92 634 317 877 615 30 37 62 67 70 67 8 0 84 -46 169 -102z
m-4313 -1074 c122 -62 283 -119 406 -144 144 -29 376 -43 591 -36 280 10 443
50 690 166 72 34 133 61 135 58 2 -2 0 -46 -5 -98 -5 -52 -14 -192 -20 -310
-16 -307 -2 -274 -150 -342 -252 -115 -470 -160 -775 -161 -219 0 -365 16
-520 57 -97 26 -278 100 -361 147 l-51 29 -6 87 c-4 49 -11 183 -17 298 -6
116 -13 229 -16 253 -3 23 -3 42 1 42 3 0 47 -21 98 -46z m36 -1210 c122 -82
345 -174 511 -210 69 -15 125 -19 295 -18 352 1 543 49 781 196 54 33 107 60
117 60 22 -1 91 -43 346 -210 343 -225 453 -355 482 -572 34 -250 -136 -504
-385 -575 -44 -13 -85 -16 -165 -13 -90 3 -115 8 -166 31 -147 68 -249 186
-330 379 -15 37 -31 65 -35 63 -4 -3 -11 -30 -15 -61 -20 -163 -106 -303 -241
-394 -117 -78 -185 -95 -379 -95 -138 0 -169 3 -230 22 -203 65 -375 299 -375
510 0 18 -3 33 -7 33 -5 0 -34 -52 -66 -115 -32 -62 -78 -141 -102 -175 -108
-146 -303 -229 -475 -203 -160 25 -330 152 -401 298 -31 65 -34 78 -37 190 -3
72 1 141 8 175 28 129 120 250 290 385 138 110 480 334 510 335 8 0 40 -16 69
-36z"/>
<path d="M3974 9616 c-42 -18 -64 -52 -64 -97 0 -46 38 -95 79 -104 61 -13
131 43 131 105 0 34 -28 78 -60 95 -35 18 -46 18 -86 1z"/>
<path d="M5833 9616 c-84 -38 -76 -170 12 -195 47 -13 82 -3 110 31 72 85 -21
209 -122 164z"/>
<path d="M4458 8389 c-18 -10 -25 -54 -10 -62 11 -7 102 22 102 33 0 12 -41
40 -60 40 -8 0 -23 -5 -32 -11z"/>
<path d="M5365 8378 c-15 -22 -14 -24 12 -35 44 -19 70 -16 77 10 12 45 -60
65 -89 25z"/>
<path d="M5322 8307 c-14 -47 -30 -116 -37 -162 -3 -22 -12 -67 -20 -100 -54
-236 -74 -430 -45 -430 11 0 22 43 47 180 18 99 49 254 69 345 20 91 37 169
37 173 1 5 -8 13 -20 17 -19 8 -23 5 -31 -23z"/>
<path d="M4525 8321 c-3 -5 8 -69 24 -143 17 -73 44 -207 61 -298 17 -91 36
-189 41 -218 8 -41 14 -52 27 -50 11 2 17 12 16 28 -4 68 -36 286 -54 370 -66
303 -71 320 -90 320 -10 0 -21 -4 -25 -9z"/>
<path d="M4603 7560 c-18 -7 -23 -17 -23 -46 l0 -36 57 7 c87 11 97 20 73 66
-12 21 -66 25 -107 9z"/>
<path d="M5197 7564 c-3 -5 -7 -22 -8 -39 -4 -28 -1 -30 36 -37 75 -13 85 -11
85 20 0 15 -4 33 -9 41 -10 15 -96 28 -104 15z"/>
<path d="M4669 7466 c-3 -3 11 -253 20 -351 1 -5 19 9 41 30 l41 40 -5 65 c-3
36 -8 100 -12 143 l-6 77 -37 0 c-21 0 -40 -2 -42 -4z"/>
<path d="M5155 7458 c-4 -14 -20 -127 -30 -219 -6 -56 -5 -58 31 -93 27 -26
40 -33 45 -24 3 7 9 65 13 128 4 63 9 139 13 168 l6 52 -37 0 c-20 0 -38 -6
-41 -12z"/>
<path d="M4403 6201 c-77 -56 -102 -133 -67 -204 55 -108 162 -136 249 -64 90
74 83 195 -16 266 -57 42 -111 42 -166 2z"/>
<path d="M5334 6220 c-37 -15 -93 -81 -100 -117 -28 -149 101 -258 225 -191
123 66 117 243 -8 297 -53 22 -83 25 -117 11z"/>
<path d="M5487 4980 c-4 -113 -7 -248 -7 -300 l0 -95 -80 -80 -80 -80 1 -255
c2 -351 15 -376 20 -38 l4 278 82 82 83 83 -8 305 -7 305 -8 -205z"/>
<path d="M4387 5111 c-4 -35 -7 -170 -7 -300 l0 -236 80 -80 79 -80 7 -303 c4
-166 8 -301 9 -300 1 2 6 139 9 306 l7 303 -81 83 -81 83 -7 294 c-5 211 -9
276 -15 230z"/>
<path d="M5662 4797 l-2 -279 -100 -105 c-77 -82 -100 -112 -99 -132 l2 -26 4
25 c3 15 44 65 99 121 74 74 97 105 104 135 11 45 11 267 0 429 -5 86 -7 49
-8 -168z"/>
<path d="M4216 4847 c-5 -104 -6 -223 -4 -264 l5 -75 100 -101 c56 -56 103
-109 106 -117 4 -11 6 -10 6 4 1 11 -40 60 -99 120 l-100 102 -2 259 -3 260
-9 -188z"/>
<path d="M4625 4795 c-35 -34 -33 -78 5 -117 29 -29 30 -32 30 -126 0 -203 13
-505 21 -484 5 12 9 147 9 300 l1 277 29 27 c16 14 32 37 35 50 19 77 -74 129
-130 73z m89 -21 c21 -20 20 -43 -1 -66 -18 -21 -53 -24 -71 -6 -28 28 -2 88
38 88 10 0 26 -7 34 -16z"/>
<path d="M5155 4795 c-35 -35 -33 -79 5 -115 l30 -28 7 -289 c3 -158 9 -297
14 -308 7 -17 13 221 14 506 0 84 1 87 33 117 41 38 42 74 3 113 -36 36 -73
37 -106 4z m99 -38 c7 -19 7 -34 0 -45 -24 -37 -94 -20 -94 23 0 57 76 75 94
22z"/>
</g>
</svg>
